# xmcd
#
# Track frame offsets: 
#        150
#        4299
#        16192
#        30000
#        40755
#        53879
#        63679
#        75468
#        86745
#        97423
#        109191
#        117144
#        127255
#        139242
#        153018
#        163278
#        175858
#        185715
#        199758
#        210671
#        221126
#        238822
#        248647
#        249960
#        252476
#        257398
#        262571
#        276354
#        286766
#        299352
#        300006
#        305947
#        315802
#        333541
#        343064
#
# Disc length: 4631 seconds
#
# Revision: 0
# Processed by: cddbd v1.5.2PL0 Copyright (c) Steve Scherf et al.
# Submitted via: ExactAudioCopy v0.95b3
#
DISCID=f8121523
DTITLE=The Beatles  - Live 04 - Adelaide Reaction - Purple Chick D 2
DYEAR=1900
DGENRE=
TTITLE0=Intro (Australian Tour 1964)
TTITLE1=I Saw Her Standing There (Australian Tour 1964)
TTITLE2=You Can't Do That (Australian Tour 1964)
TTITLE3=All My Loving (Australian Tour 1964)
TTITLE4=She Loves You (Australian Tour 1964)
TTITLE5=Till There Was You (Australian Tour 1964)
TTITLE6=Roll Over Beethoven (Australian Tour 1964)
TTITLE7=Can't Buy Me Love (Australian Tour 1964)
TTITLE8=This Boy (Australian Tour 1964)
TTITLE9=Twist And Shout (Australian Tour 1964)
TTITLE10=Intro to long tall sally All The Best From Australia)
TTITLE11=Intro (Message To Australia)
TTITLE12=I Saw Her Standing There (Message To Australia)
TTITLE13=You Can't Do That (Message To Australia)
TTITLE14=All My Loving  (Message To Australia)
TTITLE15=She Loves You  (Message To Australia)
TTITLE16=Till There Was You (Message To Australia)
TTITLE17=Roll Over Beethoven (Message To Australia)
TTITLE18=Can't Buy Me Love (Message To Australia)
TTITLE19=This Boy (Message To Australia)
TTITLE20=Twist And Shout (Message To Australia)
TTITLE21=Long Tall Sally (Message To Australia)
TTITLE22=Intro (Make As Much Noise As You Like)
TTITLE23=I Saw Her Standing There (Make As Much Noise As You Like)
TTITLE24=You Can't Do That (Make As Much Noise As You Like)
TTITLE25=I Saw Her Standing There (Ultimate Sing For Shell)
TTITLE26=You Can't Do That (Ultimate Sing For Shell)
TTITLE27=All My Loving (Ultimate Sing For Shell)
TTITLE28=She Loves You (Ultimate Sing For Shell)
TTITLE29=Till There Was You (Ultimate Sing For Shell)
TTITLE30=Roll Over Beethoven (Ultimate Sing For Shell)
TTITLE31=Can't Buy Me Love (Ultimate Sing For Shell)
TTITLE32=Twist And Shout (Ultimate Sing For Shell)
TTITLE33=Long Tall Sally (Ultimate Sing For Shell)
TTITLE34=Outro (Ultimate Sing For Shell)
EXTD=
EXTT0=
EXTT1=
EXTT2=
EXTT3=
EXTT4=
EXTT5=
EXTT6=
EXTT7=
EXTT8=
EXTT9=
EXTT10=
EXTT11=
EXTT12=
EXTT13=
EXTT14=
EXTT15=
EXTT16=
EXTT17=
EXTT18=
EXTT19=
EXTT20=
EXTT21=
EXTT22=
EXTT23=
EXTT24=
EXTT25=
EXTT26=
EXTT27=
EXTT28=
EXTT29=
EXTT30=
EXTT31=
EXTT32=
EXTT33=
EXTT34=
PLAYORDER=
